<mxfile modified="2022-05-02T01:36:25.712Z" host="app.diagrams.net" agent="5.0 (Windows NT 10.0; Win64; x64) AppleWebKit/537.36 (KHTML, like Gecko) Chrome/100.0.4896.127 Safari/537.36 Edg/100.0.1185.50" etag="w72hS4J0QJ3IMyywAgZQ" compressed="false" version="17.5.0" type="google">
  <diagram name="System Context/System Capabilities/Per Organisation" id="kWWmiXSfx_SoaX4UUIup">
    <mxGraphModel grid="1" page="1" gridSize="10" guides="1" tooltips="1" connect="1" arrows="1" fold="1" pageScale="1" pageWidth="827" pageHeight="1169" math="0" shadow="0">
      <root>
        <mxCell id="U6GFQx8tpDiFDdpl_z2M-0" />
        <mxCell id="U6GFQx8tpDiFDdpl_z2M-22" value="Diagram" style="" parent="U6GFQx8tpDiFDdpl_z2M-0" />
        <mxCell id="U6GFQx8tpDiFDdpl_z2M-44" value="Organisation/Group/User Capabilities" style="rounded=0;whiteSpace=wrap;html=1;strokeColor=#000000;strokeWidth=1;fillColor=none;fontSize=12;fontColor=#000000;align=center;fontFamily=Helvetica;recursiveResize=0;container=1;collapsible=0;absoluteArcSize=1;arcSize=12;verticalAlign=top;" vertex="1" parent="U6GFQx8tpDiFDdpl_z2M-22">
          <mxGeometry x="120" y="270" width="560" height="130" as="geometry" />
        </mxCell>
        <mxCell id="U6GFQx8tpDiFDdpl_z2M-45" value="&lt;font style=&quot;font-size: 12px&quot;&gt;&lt;font style=&quot;font-size: 12px ; line-height: 90%&quot;&gt;[Organisation]&lt;br style=&quot;font-size: 12px&quot;&gt;&lt;span style=&quot;font-size: 12px&quot;&gt;Manage&lt;br style=&quot;font-size: 12px&quot;&gt;&lt;/span&gt;Group Role Permissions&amp;nbsp;&lt;/font&gt;&lt;/font&gt;" style="rounded=0;whiteSpace=wrap;html=1;strokeColor=#d6b656;strokeWidth=4;fillColor=none;fontSize=12;align=center;fontFamily=Helvetica;verticalAlign=middle;" vertex="1" parent="U6GFQx8tpDiFDdpl_z2M-44">
          <mxGeometry x="460" y="30" width="80" height="40" as="geometry" />
        </mxCell>
        <mxCell id="U6GFQx8tpDiFDdpl_z2M-46" value="[Organisation]&lt;br style=&quot;font-size: 12px;&quot;&gt;Manage Members" style="rounded=0;whiteSpace=wrap;html=1;strokeColor=#d6b656;strokeWidth=4;fillColor=none;fontSize=12;align=center;fontFamily=Helvetica;verticalAlign=middle;" vertex="1" parent="U6GFQx8tpDiFDdpl_z2M-44">
          <mxGeometry x="100" y="30" width="80" height="40" as="geometry" />
        </mxCell>
        <mxCell id="U6GFQx8tpDiFDdpl_z2M-47" value="&lt;p style=&quot;line-height: 90%&quot;&gt;[Organisation]&lt;br style=&quot;font-size: 12px&quot;&gt;Manage Members&lt;br style=&quot;font-size: 12px&quot;&gt;Notifications&amp;nbsp;&lt;/p&gt;" style="rounded=0;whiteSpace=wrap;html=1;strokeColor=#d6b656;strokeWidth=4;fillColor=none;fontSize=12;align=center;fontFamily=Helvetica;verticalAlign=middle;" vertex="1" parent="U6GFQx8tpDiFDdpl_z2M-44">
          <mxGeometry x="190" y="80" width="80" height="40" as="geometry" />
        </mxCell>
        <mxCell id="U6GFQx8tpDiFDdpl_z2M-48" value="[Organisation]&lt;br style=&quot;font-size: 12px;&quot;&gt;Manage &lt;br style=&quot;font-size: 12px;&quot;&gt;Groups" style="rounded=0;whiteSpace=wrap;html=1;strokeColor=#d6b656;strokeWidth=4;fillColor=none;fontSize=12;align=center;fontFamily=Helvetica;verticalAlign=middle;" vertex="1" parent="U6GFQx8tpDiFDdpl_z2M-44">
          <mxGeometry x="370" y="30" width="80" height="40" as="geometry" />
        </mxCell>
        <mxCell id="U6GFQx8tpDiFDdpl_z2M-49" value="&lt;font style=&quot;font-size: 12px;&quot;&gt;[Organisation]&lt;br style=&quot;font-size: 12px;&quot;&gt;Manage&lt;/font&gt;&lt;font style=&quot;font-size: 12px;&quot;&gt;&lt;span style=&quot;font-size: 12px;&quot;&gt;&lt;br style=&quot;font-size: 12px;&quot;&gt;&lt;/span&gt;Group Invites&lt;/font&gt;" style="rounded=0;whiteSpace=wrap;html=1;strokeColor=#d6b656;strokeWidth=4;fillColor=none;fontSize=12;align=center;fontFamily=Helvetica;verticalAlign=middle;" vertex="1" parent="U6GFQx8tpDiFDdpl_z2M-44">
          <mxGeometry x="10" y="80" width="80" height="40" as="geometry" />
        </mxCell>
        <mxCell id="U6GFQx8tpDiFDdpl_z2M-50" value="[Organisation]&lt;br style=&quot;font-size: 12px;&quot;&gt;Manage &lt;br style=&quot;font-size: 12px;&quot;&gt;Properties" style="rounded=0;whiteSpace=wrap;html=1;strokeColor=#d6b656;strokeWidth=4;fillColor=none;fontSize=12;align=center;fontFamily=Helvetica;verticalAlign=middle;" vertex="1" parent="U6GFQx8tpDiFDdpl_z2M-44">
          <mxGeometry x="10" y="30" width="80" height="40" as="geometry" />
        </mxCell>
        <mxCell id="U6GFQx8tpDiFDdpl_z2M-51" value="&lt;font style=&quot;font-size: 12px ; line-height: 90%&quot;&gt;[Organisation]&lt;br style=&quot;font-size: 12px&quot;&gt;Manage Groups&lt;br style=&quot;font-size: 12px&quot;&gt;Membership&lt;/font&gt;" style="rounded=0;whiteSpace=wrap;html=1;strokeColor=#d6b656;strokeWidth=4;fillColor=none;fontSize=12;align=center;fontFamily=Helvetica;verticalAlign=middle;" vertex="1" parent="U6GFQx8tpDiFDdpl_z2M-44">
          <mxGeometry x="100" y="80" width="80" height="40" as="geometry" />
        </mxCell>
        <mxCell id="U6GFQx8tpDiFDdpl_z2M-52" value="[Organisation]&lt;br style=&quot;font-size: 12px;&quot;&gt;Member Delegation" style="rounded=0;whiteSpace=wrap;html=1;strokeColor=#d6b656;strokeWidth=4;fillColor=none;fontSize=12;align=center;fontFamily=Helvetica;verticalAlign=middle;" vertex="1" parent="U6GFQx8tpDiFDdpl_z2M-44">
          <mxGeometry x="190" y="30" width="80" height="40" as="geometry" />
        </mxCell>
        <mxCell id="U6GFQx8tpDiFDdpl_z2M-53" value="[Organisation]&lt;br style=&quot;font-size: 12px;&quot;&gt;Member Preferences" style="rounded=0;whiteSpace=wrap;html=1;strokeColor=#d6b656;strokeWidth=4;fillColor=none;fontSize=12;align=center;fontFamily=Helvetica;verticalAlign=middle;" vertex="1" parent="U6GFQx8tpDiFDdpl_z2M-44">
          <mxGeometry x="280" y="30" width="80" height="40" as="geometry" />
        </mxCell>
        <mxCell id="U6GFQx8tpDiFDdpl_z2M-54" value="Org Media/Document Capabilities" style="rounded=0;whiteSpace=wrap;html=1;strokeWidth=1;fillColor=none;fontSize=12;align=center;horizontal=1;verticalAlign=top;arcSize=12;container=1;absoluteArcSize=1;recursiveResize=0;collapsible=0;" vertex="1" parent="U6GFQx8tpDiFDdpl_z2M-22">
          <mxGeometry x="120" y="410" width="560" height="180" as="geometry" />
        </mxCell>
        <mxCell id="U6GFQx8tpDiFDdpl_z2M-55" value="&lt;p style=&quot;line-height: 90%; font-size: 12px;&quot;&gt;[Organisation]&lt;br style=&quot;font-size: 12px;&quot;&gt;Manage &lt;br style=&quot;font-size: 12px;&quot;&gt;Doc&lt;br style=&quot;font-size: 12px;&quot;&gt;Changes&lt;/p&gt;" style="rounded=0;whiteSpace=wrap;html=1;strokeColor=#d6b656;strokeWidth=4;fillColor=none;fontSize=12;align=center;fontFamily=Helvetica;verticalAlign=middle;" vertex="1" parent="U6GFQx8tpDiFDdpl_z2M-54">
          <mxGeometry x="10" y="130" width="80" height="40" as="geometry" />
        </mxCell>
        <mxCell id="U6GFQx8tpDiFDdpl_z2M-56" value="&lt;font style=&quot;font-size: 12px ; line-height: 90%&quot;&gt;[Organisation]&lt;br&gt;Manage Doc Access Permissions&lt;/font&gt;" style="rounded=0;whiteSpace=wrap;html=1;strokeColor=#d6b656;strokeWidth=4;fillColor=none;fontSize=12;align=center;fontFamily=Helvetica;verticalAlign=middle;" vertex="1" parent="U6GFQx8tpDiFDdpl_z2M-54">
          <mxGeometry x="370" y="80" width="80" height="40" as="geometry" />
        </mxCell>
        <mxCell id="U6GFQx8tpDiFDdpl_z2M-57" value="[Organisation]&lt;br style=&quot;font-size: 12px;&quot;&gt;Manage &lt;br style=&quot;font-size: 12px;&quot;&gt;Doc Content" style="rounded=0;whiteSpace=wrap;html=1;strokeColor=#d6b656;strokeWidth=4;fillColor=none;fontSize=12;align=center;fontFamily=Helvetica;verticalAlign=middle;" vertex="1" parent="U6GFQx8tpDiFDdpl_z2M-54">
          <mxGeometry x="280" y="30" width="80" height="40" as="geometry" />
        </mxCell>
        <mxCell id="U6GFQx8tpDiFDdpl_z2M-58" value="&lt;p style=&quot;line-height: 90%; font-size: 12px;&quot;&gt;[Organisation]&lt;br style=&quot;font-size: 12px;&quot;&gt;Manage &lt;br style=&quot;font-size: 12px;&quot;&gt;Doc&lt;br style=&quot;font-size: 12px;&quot;&gt;Links&lt;/p&gt;" style="rounded=0;whiteSpace=wrap;html=1;strokeColor=#d6b656;strokeWidth=4;fillColor=none;fontSize=12;align=center;fontFamily=Helvetica;verticalAlign=middle;" vertex="1" parent="U6GFQx8tpDiFDdpl_z2M-54">
          <mxGeometry x="100" y="130" width="80" height="40" as="geometry" />
        </mxCell>
        <mxCell id="U6GFQx8tpDiFDdpl_z2M-59" value="[Organisation]&lt;br style=&quot;font-size: 12px;&quot;&gt;Manage &lt;br style=&quot;font-size: 12px;&quot;&gt;Doc Structure" style="rounded=0;whiteSpace=wrap;html=1;strokeColor=#d6b656;strokeWidth=4;fillColor=none;fontSize=12;align=center;fontFamily=Helvetica;verticalAlign=middle;" vertex="1" parent="U6GFQx8tpDiFDdpl_z2M-54">
          <mxGeometry x="190" y="30" width="80" height="40" as="geometry" />
        </mxCell>
        <mxCell id="U6GFQx8tpDiFDdpl_z2M-60" value="&lt;p style=&quot;line-height: 90%; font-size: 12px;&quot;&gt;[Organisation]&lt;br style=&quot;font-size: 12px&quot;&gt;Manage&lt;br style=&quot;font-size: 12px&quot;&gt;Doc Versions&lt;/p&gt;" style="rounded=0;whiteSpace=wrap;html=1;strokeColor=#d6b656;strokeWidth=4;fillColor=none;fontSize=12;align=center;fontFamily=Helvetica;verticalAlign=middle;" vertex="1" parent="U6GFQx8tpDiFDdpl_z2M-54">
          <mxGeometry x="460" y="80" width="80" height="40" as="geometry" />
        </mxCell>
        <mxCell id="U6GFQx8tpDiFDdpl_z2M-61" value="&lt;p style=&quot;line-height: 90%; font-size: 12px;&quot;&gt;[Organisation]&lt;br style=&quot;font-size: 12px;&quot;&gt;Manage &lt;br style=&quot;font-size: 12px;&quot;&gt;Document Dev Members &amp;amp; Roles&lt;/p&gt;" style="rounded=0;whiteSpace=wrap;html=1;strokeColor=#d6b656;strokeWidth=4;fillColor=none;fontSize=12;align=center;fontFamily=Helvetica;verticalAlign=middle;" vertex="1" parent="U6GFQx8tpDiFDdpl_z2M-54">
          <mxGeometry x="280" y="80" width="80" height="40" as="geometry" />
        </mxCell>
        <mxCell id="U6GFQx8tpDiFDdpl_z2M-62" value="&lt;p style=&quot;line-height: 90%; font-size: 12px;&quot;&gt;[Organisation]&lt;br style=&quot;font-size: 12px&quot;&gt;Manage &lt;br style=&quot;font-size: 12px&quot;&gt;Adhoc Tags&lt;/p&gt;" style="rounded=0;whiteSpace=wrap;html=1;strokeColor=#d6b656;strokeWidth=4;fillColor=none;fontSize=12;align=center;fontFamily=Helvetica;verticalAlign=middle;" vertex="1" parent="U6GFQx8tpDiFDdpl_z2M-54">
          <mxGeometry x="190" y="80" width="80" height="40" as="geometry" />
        </mxCell>
        <mxCell id="U6GFQx8tpDiFDdpl_z2M-63" value="&lt;font style=&quot;font-size: 11px&quot;&gt;[Organisation]&lt;br&gt;Manage Doc Catalogues&lt;/font&gt;" style="rounded=0;whiteSpace=wrap;html=1;strokeColor=#d6b656;strokeWidth=4;fillColor=none;fontSize=9;align=center;fontFamily=Helvetica;verticalAlign=middle;" vertex="1" parent="U6GFQx8tpDiFDdpl_z2M-54">
          <mxGeometry x="10" y="30" width="80" height="40" as="geometry" />
        </mxCell>
        <mxCell id="U6GFQx8tpDiFDdpl_z2M-64" value="&lt;p style=&quot;line-height: 90% ; font-size: 12px&quot;&gt;[Organisation]&lt;br style=&quot;font-size: 9px&quot;&gt;Manage &lt;font style=&quot;font-size: 12px&quot;&gt;Catalogue,&amp;nbsp;&lt;font style=&quot;font-size: 12px&quot;&gt;Docs &amp;amp; Natural Order&lt;/font&gt;&lt;/font&gt;&lt;/p&gt;" style="rounded=0;whiteSpace=wrap;html=1;strokeColor=#d6b656;strokeWidth=4;fillColor=none;fontSize=9;align=center;fontFamily=Helvetica;verticalAlign=middle;" vertex="1" parent="U6GFQx8tpDiFDdpl_z2M-54">
          <mxGeometry x="100" y="30" width="80" height="40" as="geometry" />
        </mxCell>
        <mxCell id="U6GFQx8tpDiFDdpl_z2M-65" value="&lt;p style=&quot;line-height: 90%; font-size: 12px;&quot;&gt;[Organisation]&lt;br style=&quot;font-size: 12px;&quot;&gt;Cloning (and Linking)&lt;br style=&quot;font-size: 12px;&quot;&gt;Docs&lt;/p&gt;" style="rounded=0;whiteSpace=wrap;html=1;strokeColor=#d6b656;strokeWidth=4;fillColor=none;fontSize=12;align=center;fontFamily=Helvetica;verticalAlign=middle;" vertex="1" parent="U6GFQx8tpDiFDdpl_z2M-54">
          <mxGeometry x="190" y="130" width="80" height="40" as="geometry" />
        </mxCell>
        <mxCell id="U6GFQx8tpDiFDdpl_z2M-66" value="&lt;p style=&quot;line-height: 90%; font-size: 12px;&quot;&gt;&lt;font style=&quot;font-size: 12px;&quot;&gt;[Organisation]&lt;br style=&quot;font-size: 12px;&quot;&gt;Manage &lt;br style=&quot;font-size: 12px;&quot;&gt;Doc &lt;/font&gt;&lt;font style=&quot;font-size: 12px;&quot;&gt;Change Notifications&lt;/font&gt;&lt;/p&gt;" style="rounded=0;whiteSpace=wrap;html=1;strokeColor=#d6b656;strokeWidth=4;fillColor=none;fontSize=12;align=center;fontFamily=Helvetica;absoluteArcSize=1;arcSize=12;verticalAlign=middle;" vertex="1" parent="U6GFQx8tpDiFDdpl_z2M-54">
          <mxGeometry x="280" y="130" width="80" height="40" as="geometry" />
        </mxCell>
        <mxCell id="U6GFQx8tpDiFDdpl_z2M-67" value="&lt;font style=&quot;font-size: 11px ; line-height: 90%&quot;&gt;[Organisation]&lt;br&gt;Manage Doc Related&lt;br&gt;Media&lt;/font&gt;" style="rounded=0;whiteSpace=wrap;html=1;strokeColor=#d6b656;strokeWidth=4;fillColor=none;fontSize=9;align=center;fontFamily=Helvetica;verticalAlign=middle;" vertex="1" parent="U6GFQx8tpDiFDdpl_z2M-54">
          <mxGeometry x="460" y="30" width="80" height="40" as="geometry" />
        </mxCell>
        <mxCell id="U6GFQx8tpDiFDdpl_z2M-68" value="&lt;font style=&quot;font-size: 12px; line-height: 90%;&quot;&gt;[Organisation]&lt;br style=&quot;font-size: 12px;&quot;&gt;Manage Copyright, PIA, Classification&lt;/font&gt;" style="rounded=0;whiteSpace=wrap;html=1;strokeColor=#d6b656;strokeWidth=4;fillColor=none;fontSize=12;align=center;fontFamily=Helvetica;verticalAlign=middle;" vertex="1" parent="U6GFQx8tpDiFDdpl_z2M-54">
          <mxGeometry x="10" y="80" width="80" height="40" as="geometry" />
        </mxCell>
        <mxCell id="U6GFQx8tpDiFDdpl_z2M-89" value="&lt;p style=&quot;line-height: 90%; font-size: 12px;&quot;&gt;[Organisation]&lt;br style=&quot;font-size: 12px;&quot;&gt;Manage Doc &amp;amp; Media Metadata&lt;/p&gt;" style="rounded=0;whiteSpace=wrap;html=1;strokeColor=#d6b656;strokeWidth=4;fillColor=none;fontSize=12;align=center;fontFamily=Helvetica;verticalAlign=middle;" vertex="1" parent="U6GFQx8tpDiFDdpl_z2M-54">
          <mxGeometry x="100" y="80" width="80" height="40" as="geometry" />
        </mxCell>
        <mxCell id="U6GFQx8tpDiFDdpl_z2M-90" value="&lt;font style=&quot;font-size: 12px ; line-height: 90%&quot;&gt;[Organisation]&lt;br&gt;Manage Doc Content Validation&lt;/font&gt;" style="rounded=0;whiteSpace=wrap;html=1;strokeColor=#d6b656;strokeWidth=4;fillColor=none;fontSize=9;align=center;fontFamily=Helvetica;verticalAlign=middle;" vertex="1" parent="U6GFQx8tpDiFDdpl_z2M-54">
          <mxGeometry x="370" y="30" width="80" height="40" as="geometry" />
        </mxCell>
        <mxCell id="LGUCIAqd3B_hfbQPFAyF-0" value="&lt;p style=&quot;line-height: 90%; font-size: 12px;&quot;&gt;&lt;font style=&quot;font-size: 12px;&quot;&gt;[Organisation]&lt;br style=&quot;font-size: 12px;&quot;&gt;&lt;/font&gt;&lt;font style=&quot;font-size: 12px;&quot;&gt;Soft Delete / &lt;br style=&quot;font-size: 12px;&quot;&gt;Undo-ability&lt;/font&gt;&lt;/p&gt;" style="rounded=0;whiteSpace=wrap;html=1;strokeColor=#d6b656;strokeWidth=4;fillColor=none;fontSize=12;align=center;fontFamily=Helvetica;absoluteArcSize=1;arcSize=12;verticalAlign=middle;" vertex="1" parent="U6GFQx8tpDiFDdpl_z2M-54">
          <mxGeometry x="370" y="130" width="80" height="40" as="geometry" />
        </mxCell>
        <mxCell id="U6GFQx8tpDiFDdpl_z2M-16" value="Organisation/Group/User Specific Report" style="rounded=0;whiteSpace=wrap;html=1;strokeColor=#000000;strokeWidth=1;fillColor=none;fontSize=12;fontColor=#000000;align=center;fontFamily=Helvetica;recursiveResize=0;container=1;collapsible=0;absoluteArcSize=1;arcSize=12;verticalAlign=top;" vertex="1" parent="U6GFQx8tpDiFDdpl_z2M-22">
          <mxGeometry x="120" y="600" width="560" height="80" as="geometry" />
        </mxCell>
        <mxCell id="U6GFQx8tpDiFDdpl_z2M-17" value="Reports:&lt;br style=&quot;font-size: 12px;&quot;&gt;Lost Links" style="rounded=0;whiteSpace=wrap;html=1;strokeColor=#d6b656;strokeWidth=4;fillColor=none;fontSize=12;align=center;fontFamily=Helvetica;verticalAlign=middle;" vertex="1" parent="U6GFQx8tpDiFDdpl_z2M-16">
          <mxGeometry x="10" y="30" width="80" height="40" as="geometry" />
        </mxCell>
        <mxCell id="U6GFQx8tpDiFDdpl_z2M-18" value="Errors" style="rounded=0;whiteSpace=wrap;html=1;strokeColor=#d6b656;strokeWidth=4;fillColor=none;fontSize=12;align=center;fontFamily=Helvetica;verticalAlign=middle;" vertex="1" parent="U6GFQx8tpDiFDdpl_z2M-16">
          <mxGeometry x="280" y="30" width="80" height="40" as="geometry" />
        </mxCell>
        <mxCell id="U6GFQx8tpDiFDdpl_z2M-19" value="&lt;p style=&quot;line-height: 90%&quot;&gt;Media Metadata&lt;br style=&quot;font-size: 12px&quot;&gt;&lt;font style=&quot;font-size: 12px&quot;&gt;Usage Summary&lt;/font&gt;&lt;/p&gt;" style="rounded=0;whiteSpace=wrap;html=1;strokeColor=#d6b656;strokeWidth=4;fillColor=none;fontSize=12;align=center;fontFamily=Helvetica;verticalAlign=middle;" vertex="1" parent="U6GFQx8tpDiFDdpl_z2M-16">
          <mxGeometry x="190" y="30" width="80" height="40" as="geometry" />
        </mxCell>
        <mxCell id="U6GFQx8tpDiFDdpl_z2M-20" value="&lt;p style=&quot;line-height: 90%&quot;&gt;Catalogue &amp;amp; Doc&lt;br style=&quot;font-size: 12px&quot;&gt;&lt;font style=&quot;font-size: 12px&quot;&gt;Usage Summary&lt;/font&gt;&lt;/p&gt;" style="rounded=0;whiteSpace=wrap;html=1;strokeColor=#d6b656;strokeWidth=4;fillColor=none;fontSize=12;align=center;fontFamily=Helvetica;verticalAlign=middle;" vertex="1" parent="U6GFQx8tpDiFDdpl_z2M-16">
          <mxGeometry x="100" y="30" width="80" height="40" as="geometry" />
        </mxCell>
        <mxCell id="U6GFQx8tpDiFDdpl_z2M-21" value="User &lt;br style=&quot;font-size: 12px;&quot;&gt;Engagement Report" style="rounded=0;whiteSpace=wrap;html=1;strokeColor=#d6b656;strokeWidth=4;fillColor=none;fontSize=12;align=center;fontFamily=Helvetica;verticalAlign=middle;" vertex="1" parent="U6GFQx8tpDiFDdpl_z2M-16">
          <mxGeometry x="370" y="30" width="80" height="40" as="geometry" />
        </mxCell>
        <mxCell id="VYYvjZXgv9-zadrsl-1o-44" value="Context/Legend" parent="U6GFQx8tpDiFDdpl_z2M-0" />
        <mxCell id="VYYvjZXgv9-zadrsl-1o-45" value="" style="rounded=0;whiteSpace=wrap;html=1;fontSize=10;align=left;container=1;collapsible=0;fontColor=#B3B3B3;strokeColor=#B3B3B3;" vertex="1" parent="VYYvjZXgv9-zadrsl-1o-44">
          <mxGeometry x="489.44" y="180" width="190.56" height="50" as="geometry" />
        </mxCell>
        <mxCell id="VYYvjZXgv9-zadrsl-1o-46" value="" style="whiteSpace=wrap;html=1;aspect=fixed;fillColor=none;strokeColor=#82b366;fontSize=10;align=left;fontStyle=2;strokeWidth=2;" vertex="1" parent="VYYvjZXgv9-zadrsl-1o-45">
          <mxGeometry x="10.555801749271124" y="16.666666666666668" width="8.333333333333334" height="8.333333333333334" as="geometry" />
        </mxCell>
        <mxCell id="VYYvjZXgv9-zadrsl-1o-47" value="" style="whiteSpace=wrap;html=1;aspect=fixed;fillColor=none;strokeColor=#d6b656;fontSize=10;align=left;fontStyle=2;strokeWidth=2;" vertex="1" parent="VYYvjZXgv9-zadrsl-1o-45">
          <mxGeometry x="10.555801749271124" y="28" width="8.333333333333334" height="8.333333333333334" as="geometry" />
        </mxCell>
        <mxCell id="VYYvjZXgv9-zadrsl-1o-48" value="" style="whiteSpace=wrap;html=1;aspect=fixed;fillColor=none;strokeColor=#6c8ebf;fontSize=10;align=left;fontStyle=2;strokeWidth=2;" vertex="1" parent="VYYvjZXgv9-zadrsl-1o-45">
          <mxGeometry x="10.555801749271124" y="39.333333333333336" width="8.333333333333334" height="8.333333333333334" as="geometry" />
        </mxCell>
        <mxCell id="VYYvjZXgv9-zadrsl-1o-49" value="Internal, System (Shared)&amp;nbsp;" style="text;html=1;strokeColor=none;fillColor=none;align=left;verticalAlign=middle;whiteSpace=wrap;rounded=0;fontSize=10;fontStyle=2;fontColor=#B3B3B3;" vertex="1" parent="VYYvjZXgv9-zadrsl-1o-45">
          <mxGeometry x="21.11604804664722" y="16.666666666666668" width="169.44395195335275" height="8.333333333333334" as="geometry" />
        </mxCell>
        <mxCell id="VYYvjZXgv9-zadrsl-1o-50" value="Internal, Organisation Bound&amp;nbsp;" style="text;html=1;strokeColor=none;fillColor=none;align=left;verticalAlign=middle;whiteSpace=wrap;rounded=0;fontSize=10;fontStyle=2;fontColor=#B3B3B3;" vertex="1" parent="VYYvjZXgv9-zadrsl-1o-45">
          <mxGeometry x="21.11604804664722" y="28" width="169.44395195335275" height="8.333333333333334" as="geometry" />
        </mxCell>
        <mxCell id="VYYvjZXgv9-zadrsl-1o-51" value="External, Versioned Contracts/Msgs" style="text;html=1;strokeColor=none;fillColor=none;align=left;verticalAlign=middle;whiteSpace=wrap;rounded=0;fontSize=10;fontStyle=2;fontColor=#B3B3B3;" vertex="1" parent="VYYvjZXgv9-zadrsl-1o-45">
          <mxGeometry x="21.11604804664722" y="39.333333333333336" width="169.44395195335275" height="8.333333333333334" as="geometry" />
        </mxCell>
        <mxCell id="VYYvjZXgv9-zadrsl-1o-52" value="Legend" style="text;html=1;strokeColor=none;fillColor=none;align=center;verticalAlign=middle;whiteSpace=wrap;rounded=0;fontSize=10;fontStyle=5;fontColor=#B3B3B3;" vertex="1" parent="VYYvjZXgv9-zadrsl-1o-45">
          <mxGeometry x="21.111603498542262" width="126.66962099125365" height="16.666666666666668" as="geometry" />
        </mxCell>
        <mxCell id="kLLVU1aBwmo8_Vzj71H6-0" value="Title/Diagram" parent="U6GFQx8tpDiFDdpl_z2M-0" />
        <mxCell id="kLLVU1aBwmo8_Vzj71H6-1" value="&lt;font style=&quot;font-size: 11px&quot;&gt;&lt;span style=&quot;font-size: 12px&quot;&gt;Diagram: &lt;/span&gt;System Context - Capabilities - Organisation Specific&lt;/font&gt;" style="text;strokeColor=none;fillColor=none;html=1;fontSize=24;fontStyle=2;verticalAlign=middle;align=left;shadow=0;glass=0;comic=0;opacity=30;fontColor=#808080;" vertex="1" parent="kLLVU1aBwmo8_Vzj71H6-0">
          <mxGeometry x="120" y="700" width="520" height="20" as="geometry" />
        </mxCell>
        <UserObject label="" tooltip="" id="Ep-J5T_7bCmWtwZl4jTO-0">
          <mxCell style="shape=image;html=1;verticalAlign=top;verticalLabelPosition=bottom;labelBackgroundColor=#ffffff;imageAspect=0;aspect=fixed;image=https://cdn1.iconfinder.com/data/icons/hawcons/32/699014-icon-28-information-128.png;shadow=0;dashed=0;fontFamily=Helvetica;fontSize=12;fontColor=#000000;align=center;strokeColor=#000000;fillColor=#505050;dashPattern=1 1;" vertex="1" parent="kLLVU1aBwmo8_Vzj71H6-0">
            <mxGeometry x="660" y="700" width="20" height="20" as="geometry" />
          </mxCell>
        </UserObject>
      </root>
    </mxGraphModel>
  </diagram>
</mxfile>
